<svg xmlns="http://www.w3.org/2000/svg" width="14" height="14" viewBox="0 0 14 14" fill="none">
<path d="M6.99969 3.52734C4.79442 3.52734 3.17977 4.6457 2.04091 7C3.17977 9.3543 4.79442 10.4727 6.99969 10.4727C9.20634 10.4727 10.821 9.3543 11.9585 7C10.8196 4.6457 9.20497 3.52734 6.99969 3.52734ZM6.94501 9.40625C5.6161 9.40625 4.53876 8.32891 4.53876 7C4.53876 5.67109 5.6161 4.59375 6.94501 4.59375C8.27391 4.59375 9.35126 5.67109 9.35126 7C9.35126 8.32891 8.27391 9.40625 6.94501 9.40625Z" fill="#E6F7FF"/>
<path d="M12.8813 6.64727C11.5852 3.91699 9.62602 2.54297 6.99965 2.54297C4.37192 2.54297 2.4141 3.91699 1.11801 6.64863C1.06602 6.75871 1.03906 6.87894 1.03906 7.00068C1.03906 7.12242 1.06602 7.24265 1.11801 7.35273C2.4141 10.083 4.37328 11.457 6.99965 11.457C9.62739 11.457 11.5852 10.083 12.8813 7.35137C12.9866 7.12988 12.9866 6.87285 12.8813 6.64727ZM6.99965 10.4727C4.79438 10.4727 3.17973 9.3543 2.04086 7C3.17973 4.6457 4.79438 3.52734 6.99965 3.52734C9.20493 3.52734 10.8196 4.6457 11.9584 7C10.8209 9.3543 9.20629 10.4727 6.99965 10.4727Z" fill="#1890FF"/>
<path d="M6.94493 4.59375C5.61603 4.59375 4.53868 5.67109 4.53868 7C4.53868 8.32891 5.61603 9.40625 6.94493 9.40625C8.27384 9.40625 9.35118 8.32891 9.35118 7C9.35118 5.67109 8.27384 4.59375 6.94493 4.59375ZM6.94493 8.53125C6.09864 8.53125 5.41368 7.84629 5.41368 7C5.41368 6.15371 6.09864 5.46875 6.94493 5.46875C7.79122 5.46875 8.47618 6.15371 8.47618 7C8.47618 7.84629 7.79122 8.53125 6.94493 8.53125Z" fill="#1890FF"/>
</svg>