<svg width="24" height="24" viewBox="0 0 24 24" fill="none" xmlns="http://www.w3.org/2000/svg">
<rect width="24" height="24" fill="#F5F5F5"/>
<g id="2.3&#229;&#165;&#145;&#231;&#180;&#132;&#228;&#188;&#129;&#230;&#165;&#173;/&#229;&#155;&#163;&#228;&#189;&#147;&#228;&#184;&#128;&#232;&#166;&#167;">
<rect width="1440" height="1092" transform="translate(-30 -104)" fill="white"/>
<g id="Sidebar" filter="url(#filter0_d_0_1)">
<rect width="230" height="1092" transform="translate(-30 -104)" fill="#F5F8FF"/>
</g>
<g id="Group 5628">
<g id="Group 5626">
<g id="Sidebar_2" filter="url(#filter1_d_0_1)">
<rect width="230" height="1017" transform="translate(-30 -56)" fill="#F5F8FF"/>
</g>
<g id="Frame 44626">
<g id="Frame 44526/Yes">
<rect x="-16" y="-8" width="202" height="40" rx="8" fill="#2887F3"/>
<g id="vuesax/linear/house">
<g id="vuesax/linear/house_2">
<g id="house">
<path id="Vector" d="M2 22H22" stroke="white" stroke-width="1.5" stroke-miterlimit="10" stroke-linecap="round" stroke-linejoin="round"/>
<path id="Vector_2" d="M2.95001 22L3.00001 9.96999C3.00001 9.35999 3.29001 8.78004 3.77001 8.40004L10.77 2.95003C11.49 2.39003 12.5 2.39003 13.23 2.95003L20.23 8.39003C20.72 8.77003 21 9.34999 21 9.96999V22" stroke="white" stroke-width="1.5" stroke-miterlimit="10" stroke-linejoin="round"/>
<path id="Vector_3" d="M13 17H11C10.17 17 9.5 17.67 9.5 18.5V22H14.5V18.5C14.5 17.67 13.83 17 13 17Z" stroke="white" stroke-width="1.5" stroke-miterlimit="10" stroke-linejoin="round"/>
<path id="Vector_4" d="M9.5 13.75H7.5C6.95 13.75 6.5 13.3 6.5 12.75V11.25C6.5 10.7 6.95 10.25 7.5 10.25H9.5C10.05 10.25 10.5 10.7 10.5 11.25V12.75C10.5 13.3 10.05 13.75 9.5 13.75Z" stroke="white" stroke-width="1.5" stroke-miterlimit="10" stroke-linejoin="round"/>
<path id="Vector_5" d="M16.5 13.75H14.5C13.95 13.75 13.5 13.3 13.5 12.75V11.25C13.5 10.7 13.95 10.25 14.5 10.25H16.5C17.05 10.25 17.5 10.7 17.5 11.25V12.75C17.5 13.3 17.05 13.75 16.5 13.75Z" stroke="white" stroke-width="1.5" stroke-miterlimit="10" stroke-linejoin="round"/>
<path id="Vector_6" d="M19 7L18.97 4H14.57" stroke="white" stroke-width="1.5" stroke-miterlimit="10" stroke-linecap="round" stroke-linejoin="round"/>
</g>
</g>
</g>
</g>
</g>
</g>
</g>
</g>
<defs>
<filter id="filter0_d_0_1" x="-37.4" y="-112.4" width="246.8" height="1108.8" filterUnits="userSpaceOnUse" color-interpolation-filters="sRGB">
<feFlood flood-opacity="0" result="BackgroundImageFix"/>
<feColorMatrix in="SourceAlpha" type="matrix" values="0 0 0 0 0 0 0 0 0 0 0 0 0 0 0 0 0 0 127 0" result="hardAlpha"/>
<feOffset dx="1"/>
<feGaussianBlur stdDeviation="4.2"/>
<feComposite in2="hardAlpha" operator="out"/>
<feColorMatrix type="matrix" values="0 0 0 0 0.486768 0 0 0 0 0.486768 0 0 0 0 0.486768 0 0 0 0.25 0"/>
<feBlend mode="normal" in2="BackgroundImageFix" result="effect1_dropShadow_0_1"/>
<feBlend mode="normal" in="SourceGraphic" in2="effect1_dropShadow_0_1" result="shape"/>
</filter>
<filter id="filter1_d_0_1" x="-37.4" y="-64.4" width="246.8" height="1033.8" filterUnits="userSpaceOnUse" color-interpolation-filters="sRGB">
<feFlood flood-opacity="0" result="BackgroundImageFix"/>
<feColorMatrix in="SourceAlpha" type="matrix" values="0 0 0 0 0 0 0 0 0 0 0 0 0 0 0 0 0 0 127 0" result="hardAlpha"/>
<feOffset dx="1"/>
<feGaussianBlur stdDeviation="4.2"/>
<feComposite in2="hardAlpha" operator="out"/>
<feColorMatrix type="matrix" values="0 0 0 0 0.486768 0 0 0 0 0.486768 0 0 0 0 0.486768 0 0 0 0.25 0"/>
<feBlend mode="normal" in2="BackgroundImageFix" result="effect1_dropShadow_0_1"/>
<feBlend mode="normal" in="SourceGraphic" in2="effect1_dropShadow_0_1" result="shape"/>
</filter>
</defs>
</svg>
